<svg xmlns="http://www.w3.org/2000/svg" xmlns:xlink="http://www.w3.org/1999/xlink" width="500" zoomAndPan="magnify" viewBox="0 0 375 374.999991" height="500" preserveAspectRatio="xMidYMid meet" version="1.0"><defs><clipPath id="d687937e9f"><path d="M 32.375 87.191406 L 337.625 87.191406 L 337.625 287.441406 L 32.375 287.441406 Z M 32.375 87.191406 " clip-rule="nonzero"/></clipPath></defs><g clip-path="url(#d687937e9f)"><path fill="#000000" d="M 138.878906 96.507812 C 79.414062 117.28125 35.726562 172.714844 33.082031 239.472656 C 32.417969 256.234375 34.402344 272.488281 38.640625 287.835938 L 39.140625 287.667969 C 34.957031 272.542969 33.050781 256.503906 33.789062 239.957031 C 33.953125 236.355469 34.242188 232.789062 34.648438 229.257812 C 46.835938 231.21875 59.242188 232.472656 71.820312 233.015625 C 72.96875 247.015625 75.585938 260.761719 79.445312 273.972656 L 79.804688 273.851562 C 75.957031 260.695312 73.402344 247.003906 72.339844 233.042969 C 82.65625 233.46875 93.089844 233.414062 103.609375 232.84375 C 110.648438 232.457031 117.609375 231.847656 124.511719 231.023438 C 126.535156 239.53125 128.863281 247.980469 131.472656 256.296875 L 131.679688 256.226562 C 129.078125 247.925781 126.753906 239.488281 124.746094 230.988281 C 146.441406 228.386719 167.429688 223.644531 187.503906 216.992188 L 198.078125 247.019531 L 188.003906 216.824219 C 207.589844 210.296875 226.3125 201.957031 243.96875 192 C 247.273438 199.414062 250.382812 207.074219 253.257812 214.914062 L 253.464844 214.84375 C 250.585938 206.992188 247.472656 199.320312 244.175781 191.882812 C 258.390625 183.851562 271.921875 174.78125 284.660156 164.769531 C 291.238281 175.273438 296.929688 186.59375 301.558594 198.5 L 301.949219 198.371094 C 297.296875 186.410156 291.613281 175.027344 285.0625 164.449219 C 293.6875 157.652344 301.953125 150.425781 309.824219 142.804688 C 321.167969 155.679688 330.367188 170.421875 336.890625 186.496094 L 337.40625 186.320312 C 314.777344 130.621094 261.191406 90.371094 197.207031 87.839844 C 181.109375 87.203125 165.480469 89 150.667969 92.902344 C 149.402344 93.203125 148.148438 93.53125 146.898438 93.890625 C 145.933594 94.121094 144.988281 94.410156 144.0625 94.746094 C 143.988281 94.773438 143.917969 94.808594 143.84375 94.835938 C 143.183594 95.050781 142.519531 95.261719 141.867188 95.492188 C 141.738281 95.535156 141.613281 95.589844 141.484375 95.636719 C 140.613281 95.921875 139.742188 96.203125 138.882812 96.503906 Z M 144.136719 97.480469 C 144.515625 97.359375 144.890625 97.242188 145.273438 97.125 L 151.652344 115.21875 C 142.242188 118.25 132.757812 120.59375 123.253906 122.28125 C 127.980469 109.648438 135.089844 101.078125 144.136719 97.480469 Z M 147.785156 96.363281 C 148.015625 96.296875 148.25 96.238281 148.480469 96.171875 C 155.023438 94.796875 162.425781 95.765625 170.570312 99.402344 C 173.457031 100.695312 176.359375 102.292969 179.265625 104.164062 C 171.460938 107.933594 163.355469 111.273438 154.953125 114.128906 C 154.582031 114.253906 154.210938 114.367188 153.839844 114.492188 Z M 133.308594 101.855469 C 128.445312 106.824219 124.503906 113.8125 121.613281 122.558594 C 115.582031 123.582031 109.535156 124.339844 103.503906 124.839844 C 112.078125 115.097656 122.125 107.308594 133.308594 101.855469 Z M 159.703125 93.769531 C 168.355469 92.542969 177.417969 92.542969 186.792969 93.890625 C 189.679688 94.308594 192.546875 94.851562 195.394531 95.507812 C 190.65625 98.320312 185.785156 100.96875 180.785156 103.429688 C 177.144531 100.886719 173.5 98.769531 169.890625 97.125 C 166.347656 95.511719 162.949219 94.402344 159.703125 93.769531 Z M 117.714844 108.53125 C 111.484375 113.238281 105.746094 118.777344 100.59375 125.070312 C 97.730469 125.269531 94.882812 125.402344 92.027344 125.488281 C 99.992188 119.050781 108.597656 113.359375 117.714844 108.53125 Z M 177.902344 90.714844 C 184.433594 90.132812 191.0625 89.925781 197.777344 90.160156 C 199.6875 90.226562 201.597656 90.332031 203.488281 90.464844 C 201.632812 91.679688 199.753906 92.875 197.855469 94.035156 C 194 93.007812 190.09375 92.183594 186.164062 91.59375 C 183.382812 91.175781 180.628906 90.894531 177.90625 90.714844 Z M 89.535156 127.542969 C 92.65625 127.492188 95.789062 127.375 98.925781 127.1875 C 93.054688 134.730469 87.984375 143.285156 83.84375 152.699219 C 78.039062 152.480469 72.265625 152.050781 66.539062 151.421875 C 73.347656 142.683594 81.0625 134.675781 89.53125 127.542969 Z M 206.765625 90.726562 C 219.859375 91.914062 232.4375 94.671875 244.339844 98.8125 C 240.109375 102.285156 235.75 105.628906 231.269531 108.816406 C 221.46875 102.671875 211.152344 97.90625 200.503906 94.777344 C 202.617188 93.460938 204.707031 92.113281 206.765625 90.726562 Z M 101.640625 127.023438 C 101.640625 127.019531 101.648438 127.019531 101.652344 127.015625 C 108.070312 126.550781 114.503906 125.785156 120.9375 124.726562 C 118.597656 132.488281 117.042969 141.535156 116.34375 151.691406 C 105.980469 152.71875 95.671875 153.058594 85.46875 152.75 C 89.921875 143.195312 95.351562 134.566406 101.640625 127.023438 Z M 198.210938 96.191406 C 209.238281 99.035156 219.921875 103.613281 230.058594 109.675781 C 221.816406 115.457031 213.164062 120.726562 204.144531 125.46875 C 197.085938 117.117188 189.859375 110.113281 182.628906 104.769531 C 187.972656 102.109375 193.171875 99.246094 198.210938 96.191406 Z M 122.484375 124.460938 C 132.449219 122.746094 142.410156 120.308594 152.304688 117.117188 L 161.378906 142.863281 C 154.054688 145.042969 146.5625 146.898438 138.902344 148.394531 C 131.644531 149.8125 124.386719 150.875 117.164062 151.613281 C 118.039062 141.296875 119.851562 132.183594 122.484375 124.460938 Z M 181.214844 105.449219 C 188.675781 110.5625 196.144531 117.480469 203.433594 125.847656 C 190.703125 132.480469 177.238281 138.019531 163.117188 142.335938 L 154.460938 116.398438 C 154.828125 116.277344 155.195312 116.164062 155.5625 116.039062 C 164.449219 113.019531 173 109.46875 181.214844 105.449219 Z M 65.757812 152.425781 C 71.601562 153.042969 77.496094 153.4375 83.425781 153.628906 C 78.625 164.773438 75.132812 177.105469 73.121094 190.375 C 63.816406 189.871094 54.585938 188.894531 45.460938 187.472656 C 50.703125 174.871094 57.5625 163.117188 65.757812 152.425781 Z M 245.285156 99.140625 C 256.71875 103.203125 267.503906 108.550781 277.484375 114.988281 C 271.566406 120.636719 265.382812 126.027344 258.949219 131.152344 C 250.558594 122.6875 241.5 115.304688 231.9375 109.238281 C 236.507812 106.015625 240.964844 102.65625 245.285156 99.140625 Z M 85.035156 153.671875 C 95.359375 153.929688 105.792969 153.542969 116.289062 152.453125 C 115.578125 163.484375 115.875 175.800781 117.261719 189.195312 C 102.746094 190.757812 88.300781 191.144531 74.023438 190.425781 C 76.214844 177.117188 79.964844 164.785156 85.035156 153.667969 Z M 230.738281 110.082031 C 240.496094 115.996094 249.726562 123.285156 258.265625 131.695312 C 247.734375 140.03125 236.539062 147.640625 224.71875 154.417969 C 218.289062 143.839844 211.511719 134.246094 204.5625 125.960938 C 213.671875 121.199219 222.402344 115.882812 230.738281 110.082031 Z M 117.109375 152.363281 C 124.117188 151.609375 131.15625 150.566406 138.203125 149.191406 C 146.171875 147.632812 153.960938 145.695312 161.582031 143.414062 L 173.464844 177.148438 C 167.242188 179.171875 160.910156 180.992188 154.460938 182.597656 C 142.210938 185.644531 129.921875 187.804688 117.695312 189.140625 C 116.394531 175.691406 116.230469 163.355469 117.109375 152.363281 Z M 203.859375 126.324219 C 210.929688 134.5 217.824219 144.046875 224.351562 154.621094 C 208.796875 163.503906 192.179688 170.964844 174.621094 176.769531 L 163.308594 142.890625 C 177.492188 138.535156 191.046875 132.96875 203.859375 126.324219 Z M 44.910156 188.855469 C 54.152344 190.230469 63.507812 191.160156 72.9375 191.601562 C 71.351562 202.628906 70.789062 214.292969 71.382812 226.457031 C 71.472656 228.320312 71.597656 230.171875 71.738281 232.023438 C 59.238281 231.410156 46.898438 230.0625 34.777344 228.019531 C 36.449219 214.332031 39.914062 201.195312 44.910156 188.855469 Z M 278.355469 115.542969 C 289.609375 122.902344 299.804688 131.675781 308.722656 141.582031 C 300.972656 149.214844 292.816406 156.445312 284.316406 163.261719 C 277.03125 151.679688 268.710938 141.070312 259.574219 131.761719 C 266.089844 126.621094 272.359375 121.203125 278.355469 115.542969 Z M 73.832031 191.632812 C 88.195312 192.253906 102.742188 191.765625 117.355469 190.105469 C 118.039062 196.46875 118.960938 203.066406 120.144531 209.886719 C 121.324219 216.683594 122.726562 223.484375 124.320312 230.25 C 117.832031 231.007812 111.28125 231.558594 104.671875 231.921875 C 93.765625 232.515625 82.960938 232.542969 72.273438 232.039062 C 72.152344 230.359375 72.039062 228.671875 71.964844 226.984375 C 71.414062 214.632812 72.082031 202.796875 73.832031 191.632812 Z M 258.894531 132.3125 C 268.148438 141.519531 276.570312 152.039062 283.910156 163.578125 C 271.277344 173.671875 257.855469 182.820312 243.734375 190.910156 C 238.011719 178.101562 231.734375 166.027344 225.074219 155.003906 C 236.972656 148.21875 248.269531 140.640625 258.894531 132.3125 Z M 117.773438 190.054688 C 129.71875 188.679688 141.703125 186.53125 153.6875 183.554688 C 160.476562 181.867188 167.136719 179.929688 173.679688 177.78125 L 187.226562 216.246094 C 167.203125 222.929688 146.242188 227.664062 124.554688 230.214844 C 123.023438 223.65625 121.6875 217.066406 120.558594 210.472656 C 119.351562 203.421875 118.429688 196.609375 117.773438 190.054688 Z M 224.707031 155.207031 C 231.433594 166.167969 237.769531 178.222656 243.523438 191.03125 C 225.941406 201.085938 207.289062 209.511719 187.742188 216.070312 L 174.835938 177.40625 C 192.421875 171.554688 209.089844 164.082031 224.707031 155.207031 Z M 224.707031 155.207031 " fill-opacity="1" fill-rule="nonzero"/></g></svg>